<svg version="1.1" id="Layer_1" xmlns="http://www.w3.org/2000/svg" xmlns:xlink="http://www.w3.org/1999/xlink" x="0px" y="0px"
	 width="100%" viewBox="0 0 108 86" enable-background="new 0 0 108 86" xml:space="preserve">
<path fill="#FEFCFE" opacity="1.000000" stroke="none" 
	d="
M69.000000,87.000000 
	C46.000004,87.000000 23.500008,87.000000 1.000009,87.000000 
	C1.000006,58.333344 1.000006,29.666685 1.000003,1.000021 
	C36.999985,1.000014 72.999969,1.000014 108.999969,1.000007 
	C108.999977,29.666647 108.999977,58.333294 108.999985,86.999969 
	C95.833336,87.000000 82.666664,87.000000 69.000000,87.000000 
M85.794556,20.833441 
	C85.794556,20.833441 85.691238,20.734497 85.242653,20.870285 
	C84.952477,21.038073 84.777435,21.286856 84.753342,21.739960 
	C84.753342,21.739960 84.650955,21.662434 84.101173,21.788042 
	C83.703934,22.165955 83.306702,22.543865 82.482834,23.117947 
	C82.201370,23.293379 82.022835,23.542559 81.309631,24.061705 
	C79.492241,25.679325 77.674843,27.296947 75.272057,29.143084 
	C74.158875,30.083364 73.045685,31.023645 71.311386,32.140396 
	C69.947990,33.452053 68.584595,34.763710 66.627281,36.308525 
	C65.374397,37.441460 64.121513,38.574394 62.236313,39.914997 
	C60.771633,41.247051 59.306950,42.579102 57.192490,43.955090 
	C56.551136,43.897591 55.909786,43.840092 55.242573,43.807995 
	C55.242573,43.807995 55.257126,43.825562 55.044079,43.312840 
	C54.722057,43.147011 54.400032,42.981182 53.830532,42.309696 
	C53.215332,41.911526 52.600132,41.513351 51.642227,40.550617 
	C49.893780,39.253651 48.145329,37.956684 46.407970,36.884960 
	C46.407970,36.884960 46.363838,36.664375 46.151535,36.130440 
	C45.822155,35.951366 45.492779,35.772289 44.816853,35.033855 
	C42.821289,33.527180 40.825726,32.020500 38.386341,30.178736 
	C37.460243,36.092072 37.127899,40.769688 43.303379,43.605400 
	C45.762875,45.461845 48.222370,47.318291 50.958580,49.724110 
	C51.636677,50.162968 52.314774,50.601826 53.163898,51.462517 
	C53.365421,51.730103 53.632904,51.847603 54.250751,52.198971 
	C54.250751,52.198971 54.706516,52.342442 54.809345,52.251411 
	C54.809345,52.251411 54.678467,52.209808 54.877438,52.749092 
	C55.218876,52.892551 55.560318,53.036011 55.934547,53.050137 
	C55.934547,53.050137 55.846573,53.150452 56.101044,53.640953 
	C56.549133,53.468113 56.997223,53.295273 58.034317,52.960163 
	C59.079453,51.750179 60.124588,50.540192 61.896400,49.311852 
	C63.735279,47.918697 65.574158,46.525547 67.887184,44.805798 
	C68.582352,44.158043 69.277519,43.510292 70.630089,42.825993 
	C71.746117,41.803860 72.862144,40.781723 74.549934,39.704189 
	C75.418221,38.955433 76.286507,38.206676 77.684921,37.185455 
	C77.879593,36.853832 78.074272,36.522205 78.333092,36.235451 
	C78.333092,36.235451 78.410416,36.247723 79.004623,36.101749 
	C79.310669,35.837646 79.616707,35.573544 80.633392,35.512856 
	C81.118538,35.599129 81.603676,35.685406 82.022827,36.687614 
	C82.045685,38.522881 82.068535,40.358147 81.692276,42.713017 
	C81.812828,44.431522 81.933372,46.150028 81.946808,48.817127 
	C81.946976,55.886570 81.947144,62.956009 81.920624,70.705795 
	C82.640686,70.997818 83.360748,71.289841 84.780655,71.739075 
	C85.494102,71.715439 86.207558,71.691803 87.702667,71.872978 
	C88.345459,71.283127 89.547173,70.693245 89.547127,70.103447 
	C89.546478,61.382988 89.386307,52.662544 89.332718,43.129593 
	C89.317383,41.771587 89.302048,40.413586 89.633743,38.538727 
	C89.517845,37.338615 89.401955,36.138508 89.354919,34.146935 
	C89.369865,31.468443 89.384819,28.789953 89.691490,25.388943 
	C89.593803,24.888580 89.496117,24.388218 89.579933,23.150026 
	C89.512665,22.147633 89.445396,21.145239 89.658653,19.534143 
	C88.700867,19.604277 87.743088,19.674408 86.961700,19.767796 
	C86.961700,19.767796 86.784523,19.776842 86.309074,19.912067 
	C86.003670,20.088957 85.817596,20.350676 85.794556,20.833441 
M27.125259,21.178627 
	C26.772387,20.763786 26.419514,20.348948 25.652895,19.330584 
	C24.855984,18.987144 24.059074,18.643703 23.360207,18.342518 
	C23.360207,36.096527 23.360207,53.502930 23.360207,71.145966 
	C25.575909,71.145966 27.365292,71.145966 29.674391,71.622231 
	C31.819544,71.528969 33.964695,71.435715 36.564915,71.340363 
	C36.564915,71.340363 36.980865,71.155762 37.806896,71.368996 
	C39.498619,71.358231 41.190338,71.347466 43.613094,71.704094 
	C53.937481,72.215462 53.944904,72.209709 52.529011,64.257706 
	C49.711906,64.257706 46.798004,64.257706 43.265503,64.153091 
	C42.847225,64.168571 42.428944,64.184044 41.364140,63.989075 
	C40.917015,64.028946 40.469891,64.068825 39.227535,64.017899 
	C38.167759,64.064484 37.107986,64.111069 35.226051,64.013451 
	C33.837284,63.971642 32.448517,63.929832 30.883221,62.978546 
	C30.771725,51.200562 30.712612,39.421574 30.487181,27.645773 
	C30.456539,26.045160 29.593603,24.460484 28.617128,22.617241 
	C28.152527,22.331751 27.687925,22.046261 27.125259,21.178627 
M54.960392,28.819456 
	C55.702682,30.358631 56.444969,31.897806 57.069317,33.192425 
	C59.296543,30.652939 61.366753,28.292480 62.915688,26.526384 
	C61.130405,24.185808 59.178051,21.626192 57.393883,19.287077 
	C55.876358,21.434860 54.099110,23.950235 52.271095,26.537455 
	C52.728931,26.908747 53.593002,27.609484 54.960392,28.819456 
z"/>
<path fill="#D337A2" opacity="1.000000" stroke="none" 
	d="
M86.921005,71.668167 
	C86.207558,71.691803 85.494102,71.715439 84.337479,71.390213 
	C83.245300,70.702713 82.596306,70.364082 81.947311,70.025452 
	C81.947144,62.956009 81.946976,55.886570 82.046295,47.940361 
	C82.127647,45.440197 82.109512,43.816807 82.091385,42.193413 
	C82.068535,40.358147 82.045685,38.522881 82.076187,35.927975 
	C82.097923,34.763176 82.066292,34.358021 81.985809,33.605728 
	C78.658936,30.123974 83.207565,26.997902 81.947220,23.865484 
	C82.022835,23.542559 82.201370,23.293379 83.009972,23.019382 
	C83.908394,22.501358 84.279671,22.081896 84.650955,21.662434 
	C84.650955,21.662434 84.753342,21.739960 85.000549,21.677803 
	C85.395576,21.321930 85.543411,21.028214 85.691238,20.734497 
	C85.691238,20.734497 85.794556,20.833441 86.040894,20.747589 
	C86.452995,20.366774 86.618759,20.071808 86.784523,19.776844 
	C86.784523,19.776842 86.961700,19.767796 87.196823,19.828171 
	C88.080673,19.973314 88.729393,20.058079 89.378120,20.142845 
	C89.445396,21.145239 89.512665,22.147633 89.275574,23.610825 
	C89.114059,24.751568 89.256912,25.431515 89.399765,26.111462 
	C89.384819,28.789953 89.369865,31.468443 89.019485,34.743259 
	C88.884949,36.578251 89.085831,37.816914 89.286713,39.055580 
	C89.302048,40.413586 89.317383,41.771587 88.968407,43.810226 
	C88.425743,48.286354 88.297607,52.085030 88.056892,55.876560 
	C87.722519,61.143238 87.303688,66.404556 86.921005,71.668167 
z"/>
<path fill="#4A31E0" opacity="1.000000" stroke="none" 
	d="
M29.154675,71.145966 
	C27.365292,71.145966 25.575909,71.145966 23.360207,71.145966 
	C23.360207,53.502930 23.360207,36.096527 23.360207,18.342518 
	C24.059074,18.643703 24.855984,18.987144 25.766567,19.732325 
	C25.880239,20.134066 25.695831,20.335869 25.319897,20.336716 
	C24.705048,20.550241 24.257793,20.762070 24.256916,20.975729 
	C24.193502,36.436146 24.126705,51.896992 24.240475,67.356476 
	C24.246672,68.198517 25.785046,69.029282 26.610210,69.865295 
	C27.102102,68.936325 27.984804,68.021454 28.018892,67.075974 
	C28.174648,62.756073 28.038385,58.426743 28.106369,54.102356 
	C28.267668,43.842293 28.485241,33.583111 28.789522,23.210228 
	C28.898975,23.096886 29.116035,22.868429 29.116035,22.868429 
	C29.593603,24.460484 30.456539,26.045160 30.487181,27.645773 
	C30.712612,39.421574 30.771725,51.200562 30.964754,63.820011 
	C31.387243,66.413734 31.728199,68.166000 31.721310,69.981644 
	C30.633871,70.412010 29.894274,70.778992 29.154675,71.145966 
z"/>
<path fill="#8333E1" opacity="1.000000" stroke="none" 
	d="
M54.708733,28.564838 
	C53.593002,27.609484 52.728931,26.908747 52.271095,26.537455 
	C54.099110,23.950235 55.876358,21.434860 57.393883,19.287077 
	C59.178051,21.626192 61.130405,24.185808 62.915688,26.526384 
	C61.366753,28.292480 59.296543,30.652939 57.069317,33.192425 
	C56.444969,31.897806 55.702682,30.358631 54.708733,28.564838 
z"/>
<path fill="#220FEA" opacity="1.000000" stroke="none" 
	d="
M42.974686,43.033005 
	C37.127899,40.769688 37.460243,36.092072 38.386341,30.178736 
	C40.825726,32.020500 42.821289,33.527180 45.059166,35.612808 
	C45.655602,36.349297 46.009720,36.506836 46.363838,36.664375 
	C46.363838,36.664375 46.407970,36.884960 46.287216,37.208755 
	C45.523628,39.610382 47.390652,43.144623 42.974686,43.033005 
z"/>
<path fill="#BE57C3" opacity="1.000000" stroke="none" 
	d="
M43.884106,64.257706 
	C46.798004,64.257706 49.711906,64.257706 52.529011,64.257706 
	C53.944904,72.209709 53.937481,72.215462 43.421154,71.148308 
	C43.447510,68.480919 43.665806,66.369308 43.884106,64.257706 
z"/>
<path fill="#3C12E9" opacity="1.000000" stroke="none" 
	d="
M43.139030,43.319202 
	C47.390652,43.144623 45.523628,39.610382 46.281670,37.096130 
	C48.145329,37.956684 49.893780,39.253651 51.814377,41.265060 
	C51.551643,44.377911 51.116753,46.776325 50.681866,49.174736 
	C48.222370,47.318291 45.762875,45.461845 43.139030,43.319202 
z"/>
<path fill="#DD68B0" opacity="1.000000" stroke="none" 
	d="
M87.311844,71.770569 
	C87.303688,66.404556 87.722519,61.143238 88.056892,55.876560 
	C88.297607,52.085030 88.425743,48.286354 88.934013,44.216480 
	C89.386307,52.662544 89.546478,61.382988 89.547127,70.103447 
	C89.547173,70.693245 88.345459,71.283127 87.311844,71.770569 
z"/>
<path fill="#8823E9" opacity="1.000000" stroke="none" 
	d="
M62.868629,39.707329 
	C64.121513,38.574394 65.374397,37.441460 67.267624,36.259026 
	C68.596199,38.427197 69.284447,40.644871 69.972687,42.862541 
	C69.277519,43.510292 68.582352,44.158043 67.239548,44.929539 
	C65.350815,43.271297 64.109718,41.489311 62.868629,39.707329 
z"/>
<path fill="#BD3BBE" opacity="1.000000" stroke="none" 
	d="
M81.628426,23.963594 
	C83.207565,26.997902 78.658936,30.123974 81.698181,33.622395 
	C80.947189,34.427277 80.434967,34.868359 79.922745,35.309441 
	C79.616707,35.573544 79.310669,35.837646 78.557510,35.789780 
	C77.359421,33.290058 76.608429,31.102312 75.857445,28.914566 
	C77.674843,27.296947 79.492241,25.679325 81.628426,23.963594 
z"/>
<path fill="#9829D4" opacity="1.000000" stroke="none" 
	d="
M70.301392,42.844269 
	C69.284447,40.644871 68.596199,38.427197 67.564575,36.142445 
	C68.584595,34.763710 69.947990,33.452053 71.971069,32.120586 
	C73.079895,34.653713 73.529030,37.206650 73.978165,39.759590 
	C72.862144,40.781723 71.746117,41.803860 70.301392,42.844269 
z"/>
<path fill="#6718EB" opacity="1.000000" stroke="none" 
	d="
M32.069153,69.918259 
	C31.728199,68.166000 31.387243,66.413734 31.053019,64.274750 
	C32.448517,63.929832 33.837284,63.971642 35.875359,64.324387 
	C41.484341,66.472443 37.870899,68.909370 36.980865,71.155762 
	C36.980865,71.155762 36.564915,71.340363 36.036968,71.127426 
	C34.362396,70.582405 33.215775,70.250336 32.069153,69.918259 
z"/>
<path fill="#7822EC" opacity="1.000000" stroke="none" 
	d="
M62.552471,39.811165 
	C64.109718,41.489311 65.350815,43.271297 67.002472,45.092838 
	C65.574158,46.525547 63.735279,47.918697 61.387089,48.978065 
	C59.865940,47.066574 58.854107,45.488865 57.842270,43.911156 
	C59.306950,42.579102 60.771633,41.247051 62.552471,39.811165 
z"/>
<path fill="#621DEA" opacity="1.000000" stroke="none" 
	d="
M57.517380,43.933121 
	C58.854107,45.488865 59.865940,47.066574 61.023750,48.987244 
	C60.124588,50.540192 59.079453,51.750179 57.339478,53.033951 
	C56.378616,53.121975 56.112595,53.136211 55.846573,53.150452 
	C55.846573,53.150452 55.934547,53.050137 55.815468,52.847012 
	C55.357082,52.499195 55.017773,52.354504 54.678467,52.209808 
	C54.678467,52.209808 54.809345,52.251411 54.851147,51.880665 
	C55.018108,48.934143 55.143272,46.358372 55.268433,43.782597 
	C55.909786,43.840092 56.551136,43.897591 57.517380,43.933121 
z"/>
<path fill="#8921E0" opacity="1.000000" stroke="none" 
	d="
M37.393883,71.262375 
	C37.870899,68.909370 41.484341,66.472443 36.286438,64.396484 
	C37.107986,64.111069 38.167759,64.064484 39.778603,64.253235 
	C40.890003,64.392220 41.450333,64.295868 42.010666,64.199524 
	C42.428944,64.184044 42.847225,64.168571 43.574806,64.205399 
	C43.665806,66.369308 43.447510,68.480919 43.055637,70.964607 
	C41.190338,71.347466 39.498619,71.358231 37.393883,71.262375 
z"/>
<path fill="#AD30C8" opacity="1.000000" stroke="none" 
	d="
M74.264053,39.731888 
	C73.529030,37.206650 73.079895,34.653713 72.281631,32.032352 
	C73.045685,31.023645 74.158875,30.083364 75.564751,29.028824 
	C76.608429,31.102312 77.359421,33.290058 78.260406,35.862762 
	C78.410416,36.247723 78.333092,36.235451 77.999222,36.299477 
	C77.495163,36.728306 77.324982,37.093117 77.154800,37.457924 
	C76.286507,38.206676 75.418221,38.955433 74.264053,39.731888 
z"/>
<path fill="#4E17E9" opacity="1.000000" stroke="none" 
	d="
M55.255501,43.795296 
	C55.143272,46.358372 55.018108,48.934143 54.799732,51.926178 
	C54.706516,52.342442 54.250751,52.198971 54.002716,51.816216 
	C53.552486,51.202217 53.298550,51.071293 52.992870,51.040684 
	C52.314774,50.601826 51.636677,50.162968 50.820221,49.449425 
	C51.116753,46.776325 51.551643,44.377911 51.985733,41.547340 
	C52.600132,41.513351 53.215332,41.911526 54.051636,42.827980 
	C54.600864,43.506031 54.928997,43.665798 55.257126,43.825562 
	C55.257126,43.825562 55.242573,43.807995 55.255501,43.795296 
z"/>
<path fill="#BE57C3" opacity="1.000000" stroke="none" 
	d="
M31.721310,69.981644 
	C33.215775,70.250336 34.362396,70.582405 35.809433,71.128471 
	C33.964695,71.435715 31.819544,71.528969 29.414534,71.384094 
	C29.894274,70.778992 30.633871,70.412010 31.721310,69.981644 
z"/>
<path fill="#DD68B0" opacity="1.000000" stroke="none" 
	d="
M89.460228,38.797153 
	C89.085831,37.816914 88.884949,36.578251 88.985062,35.138992 
	C89.401955,36.138508 89.517845,37.338615 89.460228,38.797153 
z"/>
<path fill="#DD68B0" opacity="1.000000" stroke="none" 
	d="
M81.891830,42.453217 
	C82.109512,43.816807 82.127647,45.440197 82.099854,47.466064 
	C81.933372,46.150028 81.812828,44.431522 81.891830,42.453217 
z"/>
<path fill="#DD68B0" opacity="1.000000" stroke="none" 
	d="
M89.518387,19.838493 
	C88.729393,20.058079 88.080673,19.973314 87.108627,19.816544 
	C87.743088,19.674408 88.700867,19.604277 89.518387,19.838493 
z"/>
<path fill="#DD68B0" opacity="1.000000" stroke="none" 
	d="
M80.278069,35.411148 
	C80.434967,34.868359 80.947189,34.427277 81.747040,33.969528 
	C82.066292,34.358021 82.097923,34.763176 82.109184,35.470009 
	C81.603676,35.685406 81.118538,35.599129 80.278069,35.411148 
z"/>
<path fill="#DD68B0" opacity="1.000000" stroke="none" 
	d="
M89.545624,25.750202 
	C89.256912,25.431515 89.114059,24.751568 89.184814,23.979740 
	C89.496117,24.388218 89.593803,24.888580 89.545624,25.750202 
z"/>
<path fill="#DD68B0" opacity="1.000000" stroke="none" 
	d="
M81.933968,70.365623 
	C82.596306,70.364082 83.245300,70.702713 83.987549,71.311600 
	C83.360748,71.289841 82.640686,70.997818 81.933968,70.365623 
z"/>
<path fill="#4A31E0" opacity="1.000000" stroke="none" 
	d="
M25.973442,20.034086 
	C26.419514,20.348948 26.772387,20.763786 27.098579,21.550106 
	C27.071898,21.921585 26.918976,22.080973 26.730379,21.889252 
	C26.259800,21.243641 25.977816,20.789755 25.695831,20.335869 
	C25.695831,20.335869 25.880239,20.134066 25.973442,20.034086 
z"/>
<path fill="#BE57C3" opacity="1.000000" stroke="none" 
	d="
M41.687401,64.094299 
	C41.450333,64.295868 40.890003,64.392220 40.176220,64.298630 
	C40.469891,64.068825 40.917015,64.028946 41.687401,64.094299 
z"/>
<path fill="#DD68B0" opacity="1.000000" stroke="none" 
	d="
M84.376068,21.725239 
	C84.279671,22.081896 83.908394,22.501358 83.223289,22.921297 
	C83.306702,22.543865 83.703934,22.165955 84.376068,21.725239 
z"/>
<path fill="#4A31E0" opacity="1.000000" stroke="none" 
	d="
M27.147610,21.841179 
	C27.687925,22.046261 28.152527,22.331751 28.866581,22.742836 
	C29.116035,22.868429 28.898975,23.096886 28.536547,23.109390 
	C27.755737,22.774923 27.337357,22.427948 26.918976,22.080973 
	C26.918976,22.080973 27.071898,21.921585 27.147610,21.841179 
z"/>
<path fill="#BD3BBE" opacity="1.000000" stroke="none" 
	d="
M77.419861,37.321693 
	C77.324982,37.093117 77.495163,36.728306 77.967148,36.277039 
	C78.074272,36.522205 77.879593,36.853832 77.419861,37.321693 
z"/>
<path fill="#3C12E9" opacity="1.000000" stroke="none" 
	d="
M46.257687,36.397408 
	C46.009720,36.506836 45.655602,36.349297 45.232441,35.892487 
	C45.492779,35.772289 45.822155,35.951366 46.257687,36.397408 
z"/>
<path fill="#621DEA" opacity="1.000000" stroke="none" 
	d="
M55.150604,43.569199 
	C54.928997,43.665798 54.600864,43.506031 54.175373,43.080811 
	C54.400032,42.981182 54.722057,43.147011 55.150604,43.569199 
z"/>
<path fill="#621DEA" opacity="1.000000" stroke="none" 
	d="
M53.078384,51.251602 
	C53.298550,51.071293 53.552486,51.202217 53.860516,51.624237 
	C53.632904,51.847603 53.365421,51.730103 53.078384,51.251602 
z"/>
<path fill="#4E17E9" opacity="1.000000" stroke="none" 
	d="
M54.777954,52.479454 
	C55.017773,52.354504 55.357082,52.499195 55.799072,52.911678 
	C55.560318,53.036011 55.218876,52.892551 54.777954,52.479454 
z"/>
<path fill="#4E17E9" opacity="1.000000" stroke="none" 
	d="
M55.973808,53.395702 
	C56.112595,53.136211 56.378616,53.121975 57.044975,53.115082 
	C56.997223,53.295273 56.549133,53.468113 55.973808,53.395702 
z"/>
<path fill="#DD68B0" opacity="1.000000" stroke="none" 
	d="
M85.466949,20.802391 
	C85.543411,21.028214 85.395576,21.321930 84.982635,21.616138 
	C84.777435,21.286856 84.952477,21.038073 85.466949,20.802391 
z"/>
<path fill="#DD68B0" opacity="1.000000" stroke="none" 
	d="
M86.546799,19.844456 
	C86.618759,20.071808 86.452995,20.366774 86.019043,20.679482 
	C85.817596,20.350676 86.003670,20.088957 86.546799,19.844456 
z"/>
<path fill="#1703EC" opacity="1.000000" stroke="none" 
	d="
M26.730379,21.889252 
	C27.337357,22.427948 27.755737,22.774923 28.427094,23.222734 
	C28.485241,33.583111 28.267668,43.842293 28.106369,54.102356 
	C28.038385,58.426743 28.174648,62.756073 28.018892,67.075974 
	C27.984804,68.021454 27.102102,68.936325 26.610210,69.865295 
	C25.785046,69.029282 24.246672,68.198517 24.240475,67.356476 
	C24.126705,51.896992 24.193502,36.436146 24.256916,20.975729 
	C24.257793,20.762070 24.705048,20.550241 25.319897,20.336716 
	C25.977816,20.789755 26.259800,21.243641 26.730379,21.889252 
z"/>
</svg>